<?xml version="1.0" standalone="no"?><!DOCTYPE svg PUBLIC "-//W3C//DTD SVG 1.1//EN" "http://www.w3.org/Graphics/SVG/1.1/DTD/svg11.dtd"><svg t="1596851621894" class="icon" viewBox="0 0 1024 1024" version="1.1" xmlns="http://www.w3.org/2000/svg" p-id="16384" xmlns:xlink="http://www.w3.org/1999/xlink" width="128" height="128"><defs><style type="text/css"></style></defs><path d="M360.448 456.704h161.792c12.288 0 20.48 8.192 20.48 20.48s-8.192 20.48-20.48 20.48h-167.936l-77.824 438.272c-2.048 10.24-12.288 18.432-24.576 16.384-10.24-2.048-18.432-12.288-16.384-24.576l75.776-430.08h-116.736c-12.288 0-20.48-8.192-20.48-20.48s8.192-20.48 20.48-20.48h124.928l34.816-196.608c4.096-22.528 14.336-53.248 34.816-83.968 18.432-26.624 43.008-49.152 71.68-63.488 36.864-18.432 77.824-26.624 118.784-28.672 12.288 0 20.48 8.192 20.48 20.48s-8.192 20.48-20.48 20.48c-34.816 0-67.584 8.192-100.352 22.528-22.528 12.288-43.008 28.672-57.344 51.2-10.24 14.336-18.432 30.72-22.528 47.104-4.096 10.24-4.096 16.384-6.144 20.48l-32.768 190.464z m344.064 251.904l116.736-137.216c8.192-8.192 20.48-10.24 28.672-2.048s10.24 20.48 2.048 28.672l-120.832 143.36 120.832 143.36c8.192 8.192 6.144 22.528-2.048 28.672-8.192 8.192-22.528 6.144-28.672-2.048l-116.736-137.216-116.736 137.216c-8.192 8.192-20.48 10.24-28.672 2.048-8.192-8.192-10.24-20.48-2.048-28.672l120.832-143.36-120.832-143.36c-8.192-8.192-6.144-22.528 2.048-28.672 8.192-8.192 22.528-6.144 28.672 2.048l116.736 137.216z" p-id="16385"></path></svg>