<?xml version="1.0" standalone="no"?><!DOCTYPE svg PUBLIC "-//W3C//DTD SVG 1.1//EN" "http://www.w3.org/Graphics/SVG/1.1/DTD/svg11.dtd"><svg t="1596850721562" class="icon" viewBox="0 0 1024 1024" version="1.1" xmlns="http://www.w3.org/2000/svg" p-id="6212" xmlns:xlink="http://www.w3.org/1999/xlink" width="128" height="128"><defs><style type="text/css"></style></defs><path d="M961.777778 806.940444c-0.469333-0.711111 0.497778 0.696889 0 0L680.149333 400.597333V77.084444c0-15.715556-7.665778-27.306667-23.367111-27.306666H386.545778c-15.701333 0-19.285333 11.605333-19.285334 27.306666v314.268445L69.745778 807.310222c-0.497778 0.696889-3.086222 3.939556-3.527111 4.693334-24.007111 41.614222-29.553778 79.943111-11.164445 111.786666 18.574222 32.156444 55.68 50.432 104.490667 50.432h703.303111c48.768 0 87.011556-18.304 105.585778-50.503111 18.432-31.928889 17.351111-75.136-6.656-116.778667zM414.392889 416.739556c3.370667-4.807111 9.770667-10.524444 9.770667-16.384V106.666667h199.111111v302.947555c0 5.859556-2.759111 11.719111 0.625777 16.512l130.702223 188.615111c-43.463111 17.521778-97.024 29.155556-206.663111-36.366222-79.431111-47.459556-177.763556-29.127111-244.608-6.385778l111.061333-155.249777zM918.044444 895.274667c-7.879111 13.653333-28.003556 22.058667-55.182222 22.058666H159.559111c-27.235556 0-47.36-8.376889-55.224889-22.001777-7.566222-13.112889-4.608-34.005333 8.120889-56.533334l160.526222-224.384c56.064-24.206222 173.781333-63.345778 260.380445-11.605333 69.006222 41.216 118.997333 54.243556 158.094222 54.243555 32.583111 0 57.6-9.059556 79.744-18.360888l138.737778 200.192c12.757333 22.528 15.715556 43.221333 8.106666 56.391111z" p-id="6213"></path><path d="M313.258667 724.892444a77.880889 77.880889 0 0 0-77.809778 77.809778 77.895111 77.895111 0 0 0 77.809778 77.809778 77.895111 77.895111 0 0 0 77.809777-77.809778 77.880889 77.880889 0 0 0-77.809777-77.809778z m0 127.175112c-27.221333 0-49.365333-22.158222-49.365334-49.379556s22.144-49.365333 49.365334-49.365333 49.365333 22.144 49.365333 49.365333-22.144 49.379556-49.365333 49.379556zM722.133333 746.225778a67.214222 67.214222 0 0 0-67.143111 67.143111 67.228444 67.228444 0 0 0 67.143111 67.143111 67.228444 67.228444 0 0 0 67.157334-67.143111 67.214222 67.214222 0 0 0-67.157334-67.143111z m0 105.841778c-21.333333 0-38.698667-17.379556-38.698666-38.712889s17.365333-38.698667 38.698666-38.698667 38.712889 17.365333 38.712889 38.698667-17.379556 38.712889-38.712889 38.712889zM498.872889 646.670222a57.244444 57.244444 0 0 0-57.187556 57.187556 57.244444 57.244444 0 0 0 57.187556 57.187555c31.530667 0 57.187556-25.671111 57.187555-57.187555s-25.656889-57.187556-57.187555-57.187556z m0 85.944889a28.785778 28.785778 0 0 1-28.743111-28.743111c0-15.843556 12.899556-28.743111 28.743111-28.743111 15.843556 0 28.743111 12.885333 28.743111 28.743111s-12.899556 28.743111-28.743111 28.743111zM580.608 318.862222a14.222222 14.222222 0 0 0 14.222222-14.222222v-156.444444a14.222222 14.222222 0 1 0-28.444444 0v156.444444a14.222222 14.222222 0 0 0 14.222222 14.222222zM580.608 389.973333a14.222222 14.222222 0 0 0 14.222222-14.222222v-14.222222a14.222222 14.222222 0 1 0-28.444444 0v14.222222a14.222222 14.222222 0 0 0 14.222222 14.222222z" p-id="6214"></path></svg>